<?xml version="1.0" encoding="UTF-8"?>
<svg width="1920px" height="949px" viewBox="0 0 1920 949" version="1.1" xmlns="http://www.w3.org/2000/svg" xmlns:xlink="http://www.w3.org/1999/xlink">
    <!-- Generator: Sketch 64 (93537) - https://sketch.com -->
    <title>Group 5</title>
    <desc>Created with Sketch.</desc>
    <defs>
        <rect id="path-1" x="0" y="0" width="1920" height="949"></rect>
        <linearGradient x1="32.3532475%" y1="32.3554938%" x2="69.1255598%" y2="69.1303593%" id="linearGradient-3">
            <stop stop-color="#00B3A5" offset="0%"></stop>
            <stop stop-color="#FF68F0" offset="100%"></stop>
        </linearGradient>
    </defs>
    <g id="External" stroke="none" stroke-width="1" fill="none" fill-rule="evenodd">
        <g id="Tete-One-Pager" transform="translate(0.000000, -2017.000000)">
            <g id="Group-5" transform="translate(0.000000, 2017.000000)">
                <mask id="mask-2" fill="white">
                    <use xlink:href="#path-1"></use>
                </mask>
                <use id="Rectangle-Copy-5" fill="#020407" xlink:href="#path-1"></use>
                <g id="Asset-1@10.1" mask="url(#mask-2)" fill="url(#linearGradient-3)" fill-rule="nonzero" opacity="0.09">
                    <g transform="translate(0.000000, -85.000000)" id="Shape">
                        <path d="M1615.14076,930.37181 L1614.80751,930.37181 L1500.76856,1158.46554 L1273.02392,1272.57907 L1273.02392,1272.57907 L1158.91832,1500.6728 L931.107023,1614.58636 L931.107023,1614.58636 L817.001423,1842.68009 L663.238796,1919.66672 L667.837678,1919.66672 L817.667928,1844.7464 L817.667928,1844.7464 L931.773527,1616.58601 L1159.71812,1502.6058 L1159.71812,1502.6058 L1273.82372,1274.51206 L1501.63502,1160.59851 L1501.63502,1160.59851 L1615.67397,932.504773 L1843.48526,818.591217 L1843.81852,818.591217 L1919.53345,667.884048 L1919.53345,663.284846 L1842.95206,816.591564 L1615.14076,930.37181 Z M1586.61436,901.910085 L1586.61436,901.910085 L1472.50877,1130.07047 L1244.69747,1243.98403 L1244.69747,1243.98403 L1130.59187,1472.07776 L902.24737,1586.39125 L902.24737,1586.39125 L788.208422,1814.48499 L577.726247,1919.66672 L582.325129,1919.66672 L788.941577,1816.28467 L788.941577,1816.28467 L902.980526,1588.19094 L1130.79182,1474.27738 L1130.79182,1474.27738 L1245.69723,1245.78372 L1473.50852,1131.87016 L1473.50852,1131.87016 L1587.61412,903.709773 L1815.42542,789.796216 L1815.42542,789.796216 L1919.53345,582.365562 L1919.53345,577.76636 L1814.42566,787.996528 L1586.61436,901.910085 Z M1700.38671,331.742406 L1586.28111,559.902795 L1358.46982,673.816351 L1358.13656,673.816351 L1244.09762,901.97674 L1016.28632,1015.8903 L1015.95307,1015.8903 L901.914118,1244.05069 L674.102822,1357.96424 L673.76957,1357.96424 L559.863922,1586.39125 L331.985976,1700.37146 L331.652723,1700.37146 L222.079356,1919.66672 L224.412122,1919.66672 L333.252335,1702.03784 L561.06363,1588.12428 L561.06363,1588.12428 L675.369181,1359.76393 L903.180477,1245.85037 L903.513729,1245.85037 L1017.55268,1017.68998 L1245.36397,903.776428 L1245.69723,903.776428 L1359.66952,675.416074 L1587.48082,561.502517 L1587.81407,561.502517 L1701.91967,333.275473 L1919.53345,224.427704 L1919.53345,222.094775 L1700.65331,331.542441 L1700.38671,331.742406 Z M1728.91311,359.937511 L1614.80751,588.36452 L1386.99622,702.278077 L1386.99622,702.278077 L1273.02392,930.571776 L1044.87937,1044.48533 L1044.54612,1044.48533 L930.507168,1273.11231 L702.695873,1386.42597 L702.36262,1386.42597 L588.323671,1614.98629 L360.512375,1728.83319 L360.179123,1728.83319 L264.868955,1919.66672 L267.201722,1919.66672 L361.712084,1730.56622 L589.52338,1616.65266 L589.52338,1616.65266 L703.562329,1388.55893 L931.373624,1274.64537 L931.706877,1274.64537 L1046.41233,1046.48499 L1274.22363,932.571429 L1274.55688,932.571429 L1388.59583,704.41104 L1616.40712,590.497483 L1616.40712,590.497483 L1730.51272,362.337094 L1919.53345,267.220274 L1919.53345,264.887346 L1729.17971,359.937511 L1728.91311,359.937511 Z M1871.47846,1186.92727 L1757.43951,1415.08766 L1529.62822,1529.26784 L1529.29496,1529.26784 L1415.25601,1757.42822 L1187.44472,1871.34178 L1187.44472,1871.34178 L1163.45055,1919.4001 L1165.71667,1919.4001 L1188.97768,1872.74154 L1416.78897,1758.82798 L1416.78897,1758.82798 L1530.82792,1530.66759 L1758.63922,1416.75404 L1758.63922,1416.75404 L1872.87812,1188.72696 L1919.53345,1165.46433 L1919.53345,1163.19806 L1871.74506,1187.06058 L1871.47846,1186.92727 Z M1900.00486,1215.45565 L1786.23251,1443.88266 L1558.42122,1557.79622 L1558.42122,1557.79622 L1443.71576,1786.35654 L1215.97112,1899.6702 L1215.63787,1899.6702 L1205.84025,1919.66672 L1208.17301,1919.66672 L1217.17083,1901.66985 L1444.98212,1787.75629 L1444.98212,1787.75629 L1559.62093,1559.72921 L1787.43222,1445.81566 L1787.43222,1445.81566 L1901.53782,1217.65527 L1919.53345,1208.65683 L1919.53345,1206.3239 L1900.27146,1215.98889 L1900.00486,1215.45565 Z M1672.19356,987.161951 L1672.19356,987.161951 L1558.15462,1215.32234 L1330.34332,1329.2359 L1330.01007,1329.2359 L1215.97112,1557.39629 L988.159822,1671.30984 L987.82657,1671.30984 L873.787621,1899.47023 L834.330545,1919.66672 L838.929427,1919.66672 L874.654077,1901.80316 L874.987329,1901.80316 L989.026278,1673.64277 L1216.83757,1559.72921 L1217.17083,1559.72921 L1331.20978,1331.56882 L1559.02107,1217.65527 L1559.35432,1217.65527 L1673.39327,989.494879 L1901.20457,875.581323 L1901.53782,875.581323 L1919.53345,839.520917 L1919.53345,834.921715 L1900.00486,874.048256 L1672.19356,987.161951 Z M1643.66716,958.633571 L1643.33391,958.633571 L1529.29496,1186.7273 L1301.48367,1301.10745 L1301.15041,1301.10745 L1187.11147,1529.26784 L959.30017,1643.18139 L959.30017,1643.18139 L845.194571,1871.34178 L748.817996,1919.66672 L753.150276,1919.66672 L846.46093,1873.00816 L846.46093,1873.00816 L960.566529,1644.84777 L1188.31117,1530.93421 L1188.64443,1530.93421 L1302.68338,1302.77382 L1530.49467,1188.86027 L1530.82792,1188.86027 L1644.86687,960.766534 L1872.87812,846.519701 L1872.87812,846.519701 L1919.53345,753.202569 L1919.53345,748.603367 L1871.47846,844.720014 L1643.66716,958.633571 Z M1842.95206,474.051033 L1728.91311,702.411387 L1501.10182,816.324944 L1500.76856,816.324944 L1386.72961,1044.41868 L1158.91832,1158.33223 L1158.91832,1158.33223 L1044.87937,1386.49262 L817.068074,1500.40618 L816.734821,1500.40618 L702.36262,1729.03315 L474.551324,1842.94671 L474.551324,1842.94671 L435.960704,1919.66672 L438.29347,1919.66672 L475.817683,1844.61309 L703.562329,1730.69953 L703.562329,1730.69953 L817.601277,1502.53914 L1045.41257,1388.62559 L1045.41257,1388.62559 L1159.45152,1160.4652 L1387.92932,1046.48499 L1387.92932,1046.48499 L1501.96827,818.324596 L1729.77957,704.41104 L1730.11282,704.41104 L1844.15177,476.317306 L1919.53345,438.323902 L1919.53345,435.990974 L1843.28531,474.117688 L1842.95206,474.051033 Z M1900.00486,531.041139 L1786.23251,759.468148 L1558.08796,873.181739 L1558.08796,873.181739 L1443.98237,1101.34213 L1216.23772,1215.25568 L1215.90447,1215.25568 L1101.86552,1443.41607 L873.787621,1557.79622 L873.787621,1557.79622 L759.41542,1786.35654 L531.604124,1899.6702 L531.270872,1899.6702 L521.539903,1919.66672 L523.806019,1919.66672 L532.803832,1901.66985 L760.615128,1787.75629 L760.615128,1787.75629 L874.987329,1559.72921 L1102.79863,1445.81566 L1102.79863,1445.81566 L1216.83757,1217.65527 L1444.64887,1103.74171 L1444.64887,1103.74171 L1559.62093,875.048082 L1787.43222,761.134525 L1787.43222,761.134525 L1901.53782,532.840826 L1919.53345,523.842388 L1919.53345,521.576115 L1900.27146,531.174449 L1900.00486,531.041139 Z M1871.47846,502.579413 L1757.43951,730.673147 L1529.62822,844.853324 L1529.29496,844.853324 L1415.25601,1073.14702 L1187.44472,1187.06058 L1187.44472,1187.06058 L1073.07252,1415.35428 L845.261221,1529.26784 L845.261221,1529.26784 L731.222272,1757.42822 L503.077724,1871.47509 L503.077724,1871.47509 L478.750304,1919.66672 L481.01642,1919.66672 L504.277433,1873.00816 L732.088728,1759.0946 L732.088728,1759.0946 L846.46093,1530.93421 L1074.27223,1417.02066 L1074.27223,1417.02066 L1188.31117,1188.86027 L1416.12247,1074.94671 L1416.12247,1074.94671 L1530.82792,846.519701 L1758.63922,732.606145 L1758.63922,732.606145 L1872.87812,504.312446 L1919.53345,481.049818 L1919.53345,478.783545 L1871.74506,502.646068 L1871.47846,502.579413 Z M1757.43951,388.732512 L1643.33391,616.892901 L1415.52262,730.806457 L1415.52262,730.806457 L1301.41702,958.966846 L1073.07252,1073.14702 L1073.07252,1073.14702 L959.033568,1301.24076 L731.222272,1415.15431 L731.222272,1415.15431 L616.850071,1643.44801 L389.038775,1757.36157 L389.038775,1757.36157 L307.658555,1919.66672 L309.924671,1919.66672 L389.905231,1759.0946 L617.716527,1645.18104 L617.716527,1645.18104 L731.755476,1417.08731 L959.566772,1303.17375 L959.900024,1303.17375 L1073.93897,1075.08002 L1301.75027,961.166464 L1301.75027,961.166464 L1415.85587,733.006075 L1644.60027,618.559278 L1644.60027,618.559278 L1758.90582,390.265579 L1919.53345,310.279465 L1919.53345,308.013192 L1757.70611,388.599202 L1757.43951,388.732512 Z M1672.19356,303.01406 L1672.19356,303.01406 L1557.82136,531.307759 L1330.01007,645.221316 L1329.67681,645.221316 L1215.63787,873.315049 L987.82657,987.228606 L987.493318,987.228606 L873.454369,1215.38899 L645.643073,1329.63583 L645.309821,1329.63583 L531.270872,1557.92953 L303.459576,1671.84308 L303.459576,1671.84308 L189.087375,1900.13678 L150.030201,1919.66672 L154.629083,1919.66672 L190.353733,1901.80316 L190.353733,1901.80316 L304.459333,1673.64277 L532.537231,1559.72921 L532.537231,1559.72921 L646.576179,1331.56882 L874.387475,1217.65527 L874.720728,1217.65527 L988.759676,989.494879 L1216.57097,875.581323 L1216.90422,875.581323 L1330.94317,647.487589 L1559.02107,533.240757 L1559.35432,533.240757 L1673.39327,305.147023 L1901.20457,191.233466 L1901.53782,191.233466 L1919.53345,155.239715 L1919.53345,150.640514 L1900.00486,189.700399 L1672.19356,303.01406 Z M1786.23251,417.260892 L1671.86031,645.421281 L1444.04902,759.334838 L1444.04902,759.334838 L1329.67681,987.561882 L1101.86552,1101.47544 L1101.86552,1101.47544 L987.493318,1329.76914 L759.815323,1443.68269 L759.815323,1443.68269 L645.309821,1671.97639 L417.498525,1785.88995 L417.498525,1785.88995 L350.448155,1919.66672 L352.714271,1919.66672 L418.764884,1787.55633 L646.509529,1673.64277 L646.509529,1673.64277 L760.615128,1445.54904 L988.426424,1331.63548 L988.426424,1331.63548 L1102.53202,1103.54175 L1330.34332,989.62819 L1330.34332,989.62819 L1444.38227,761.534456 L1672.92672,647.087658 L1672.92672,647.087658 L1786.96567,418.92727 L1919.53345,352.738761 L1919.53345,350.472487 L1786.23251,417.127582 L1786.23251,417.260892 Z M1843.28531,1158.66551 L1728.91311,1386.8259 L1501.10182,1500.73945 L1500.76856,1500.73945 L1386.72961,1729.03315 L1158.91832,1842.94671 L1158.91832,1842.94671 L1120.3277,1919.66672 L1122.59381,1919.66672 L1160.11803,1844.61309 L1387.92932,1730.69953 L1387.92932,1730.69953 L1502.30152,1502.40583 L1730.11282,1388.49228 L1730.44607,1388.49228 L1844.48502,1160.33189 L1919.53345,1122.67176 L1919.53345,1120.40549 L1843.28531,1158.5322 L1843.28531,1158.66551 Z M1871.47846,160.638778 L1643.66716,274.552335 L1643.33391,274.552335 L1529.29496,502.846034 L1301.48367,616.692935 L1301.15041,616.692935 L1187.11147,844.786669 L959.30017,958.700226 L959.30017,958.700226 L845.194571,1186.79396 L617.116673,1301.10745 L617.116673,1301.10745 L502.744472,1529.40115 L274.933176,1643.3147 L274.933176,1643.3147 L160.627625,1871.6084 L64.4510015,1919.66672 L69.0498837,1919.66672 L161.827334,1873.00816 L161.827334,1873.00816 L275.932933,1644.84777 L504.010831,1531.06752 L504.010831,1531.06752 L618.11643,1302.90713 L846.46093,1188.86027 L846.46093,1188.86027 L960.566529,960.766534 L1188.31117,846.519701 L1188.64443,846.519701 L1302.68338,618.425968 L1530.49467,504.512411 L1530.82792,504.512411 L1644.86687,276.418677 L1872.87812,162.305155 L1872.87812,162.305155 L1919.53345,68.9880229 L1919.53345,64.4554765 L1871.47846,160.638778 Z M1814.42566,445.789273 L1700.38671,673.883006 L1472.57542,787.796563 L1472.24216,787.796563 L1358.20321,1015.8903 L1130.39192,1130.00382 L1130.39192,1130.00382 L1016.35297,1358.09755 L788.541674,1472.01111 L788.541674,1472.01111 L673.83622,1700.50477 L446.024924,1814.41833 L446.024924,1814.41833 L393.237755,1919.66672 L395.570521,1919.66672 L447.357934,1816.08471 L675.16923,1702.17115 L675.16923,1702.17115 L789.274829,1474.01076 L1017.28608,1359.76393 L1017.28608,1359.76393 L1131.32503,1131.6702 L1359.66952,1017.82329 L1359.66952,1017.82329 L1473.70847,789.729561 L1701.51977,675.816004 L1701.51977,675.816004 L1815.55872,447.72227 L1919.53345,395.531331 L1919.53345,393.265058 L1814.75891,445.722618 L1814.42566,445.789273 Z M1757.43951,1757.56153 L1676.32589,1919.66672 L1678.65866,1919.66672 L1758.63922,1759.0946 L1919.53345,1678.77521 L1919.53345,1676.44228 L1757.70611,1757.36157 L1757.43951,1757.56153 Z M1786.23251,1786.35654 L1719.58205,1920 L1721.91481,1920 L1787.89877,1787.8896 L1920,1721.90106 L1920,1719.56813 L1786.69907,1786.22323 L1786.23251,1786.35654 Z M1700.71996,1700.83805 L1590.81334,1919.66672 L1592.94616,1919.66672 L1701.78637,1702.03784 L1919.53345,1593.05676 L1919.53345,1590.79049 L1700.65331,1700.37146 L1700.71996,1700.83805 Z M1814.75891,1814.88492 L1761.90509,1919.66672 L1764.17121,1919.66672 L1815.95862,1816.08471 L1919.53345,1764.2937 L1919.53345,1762.02743 L1814.75891,1814.41833 L1814.75891,1814.88492 Z M1672.52682,1672.17636 L1672.52682,1672.17636 L1558.48787,1900.33675 L1518.69754,1919.66672 L1523.29642,1919.66672 L1559.02107,1901.80316 L1559.35432,1901.80316 L1673.39327,1673.64277 L1901.20457,1559.72921 L1901.53782,1559.72921 L1919.53345,1523.66881 L1919.53345,1519.06961 L1900.00486,1558.19615 L1672.52682,1672.17636 Z M1900.33811,1900.47006 L1890.20724,1919.66672 L1892.47336,1919.66672 L1901.53782,1901.66985 L1919.53345,1892.60476 L1919.53345,1890.33848 L1900.27146,1899.6702 L1900.33811,1900.47006 Z M1871.81171,1871.94168 L1847.41764,1919.66672 L1849.75041,1919.66672 L1873.01142,1873.00816 L1919.66675,1849.74553 L1919.66675,1847.4126 L1871.87836,1871.34178 L1871.81171,1871.94168 Z M1814.75891,1130.53706 L1700.71996,1358.63079 L1472.90867,1472.54435 L1472.57542,1472.54435 L1358.53647,1700.70474 L1130.39192,1814.41833 L1130.39192,1814.41833 L1077.5381,1919.66672 L1079.73756,1919.66672 L1131.45833,1816.08471 L1359.66952,1702.17115 L1359.66952,1702.17115 L1473.70847,1474.01076 L1701.58642,1359.76393 L1701.58642,1359.76393 L1815.62537,1131.6702 L1919.53345,1079.81253 L1919.53345,1077.4796 L1814.75891,1129.87051 L1814.75891,1130.53706 Z M1843.28531,1843.74657 L1804.69469,1919.66672 L1806.96081,1919.66672 L1844.48502,1844.61309 L1919.53345,1807.08627 L1919.53345,1804.82 L1843.28531,1842.94671 L1843.28531,1843.74657 Z M1644.00042,1643.78129 L1643.66716,1643.78129 L1529.62822,1871.94168 L1432.98504,1919.66672 L1437.58392,1919.66672 L1530.29472,1873.00816 L1530.62797,1873.00816 L1644.66692,1644.84777 L1872.87812,1531.06752 L1872.87812,1531.06752 L1919.53345,1437.75039 L1919.53345,1433.08453 L1871.47846,1529.20118 L1644.00042,1643.78129 Z M1729.24636,1045.08523 L1614.80751,1273.11231 L1386.99622,1386.42597 L1386.99622,1386.42597 L1273.02392,1614.98629 L1045.21262,1728.83319 L1044.87937,1728.83319 L949.23595,1919.66672 L951.502065,1919.66672 L1046.41233,1730.56622 L1274.22363,1616.65266 L1274.55688,1616.65266 L1388.59583,1388.55893 L1616.40712,1274.64537 L1616.40712,1274.64537 L1730.44607,1046.48499 L1919.53345,951.568131 L1919.53345,949.301857 L1729.17971,1044.48533 L1729.24636,1045.08523 Z M1786.23251,1102.14199 L1671.86031,1329.76914 L1444.04902,1443.68269 L1444.04902,1443.68269 L1329.67681,1671.97639 L1101.86552,1785.88995 L1101.86552,1785.88995 L1035.21505,1919.53341 L1037.54782,1919.53341 L1103.59843,1787.42302 L1331.40973,1673.50946 L1331.40973,1673.50946 L1445.44868,1445.41573 L1672.92672,1331.50217 L1672.92672,1331.50217 L1786.96567,1103.40844 L1919.53345,1037.15327 L1919.53345,1034.82034 L1786.23251,1101.47544 L1786.23251,1102.14199 Z M1757.43951,1073.14702 L1643.33391,1301.24076 L1415.52262,1415.15431 L1415.52262,1415.15431 L1301.41702,1643.24805 L1073.07252,1757.36157 L1073.07252,1757.36157 L992.025549,1919.66672 L994.291665,1919.66672 L1074.27223,1759.0946 L1302.08352,1645.18104 L1302.08352,1645.18104 L1416.18912,1417.08731 L1644.00042,1303.17375 L1644.00042,1303.17375 L1758.03937,1075.08002 L1918.66699,995.093907 L1918.66699,992.827634 L1757.70611,1073.14702 L1757.43951,1073.14702 Z M1700.38671,1016.09026 L1586.28111,1244.25065 L1358.46982,1358.16421 L1358.13656,1358.16421 L1244.16427,1586.39125 L1016.35297,1700.37146 L1016.01972,1700.37146 L906.44635,1919.66672 L908.779116,1919.66672 L1017.55268,1702.03784 L1245.36397,1588.12428 L1245.69723,1588.12428 L1359.66952,1359.76393 L1587.48082,1245.85037 L1587.81407,1245.85037 L1701.85302,1017.68998 L1919.53345,908.842215 L1919.53345,906.509287 L1700.65331,1015.95695 L1700.38671,1016.09026 Z M1615.14076,1614.78632 L1614.80751,1614.78632 L1500.76856,1842.88006 L1347.47249,1919.46676 L1352.07137,1919.46676 L1501.90162,1844.54643 L1501.90162,1844.54643 L1615.94057,1616.38604 L1843.75187,1502.53914 L1844.08512,1502.53914 L1919.53345,1352.29856 L1919.53345,1347.69936 L1842.95206,1501.00608 L1615.14076,1614.78632 Z M1586.61436,1586.39125 L1586.61436,1586.39125 L1472.50877,1814.48499 L1262.09324,1919.66672 L1266.69212,1919.66672 L1473.30857,1816.28467 L1473.30857,1816.28467 L1587.41417,1588.19094 L1815.22547,1474.27738 L1815.22547,1474.27738 L1919.53345,1266.78007 L1919.53345,1262.18087 L1814.42566,1472.34438 L1586.61436,1586.39125 Z M1728.91311,1729.03315 L1633.60294,1919.66672 L1635.86906,1919.66672 L1730.44607,1730.56622 L1919.53345,1635.98264 L1919.53345,1633.71637 L1729.17971,1728.83319 L1728.91311,1729.03315 Z M133.634186,817.991321 L361.445482,704.077764 L361.445482,704.077764 L475.817683,475.85072 L703.562329,361.937164 L703.562329,361.937164 L817.601277,133.84343 L1045.74583,19.9965284 L1045.74583,19.9965284 L1055.8767,0 L1053.54393,0 L1044.54612,18.0635306 L816.734821,131.910432 L816.401569,131.910432 L702.36262,359.937511 L474.551324,474.117688 L474.551324,474.117688 L359.912521,702.411387 L132.367827,816.324944 L132.367827,816.324944 L17.9956261,1044.61864 L0,1053.61708 L0,1055.95001 L19.5285868,1046.48499 L133.634186,817.991321 Z M76.5813865,1103.20847 L190.620335,875.048082 L418.431631,761.134525 L418.431631,761.134525 L532.803832,532.840826 L760.615128,418.92727 L760.615128,418.92727 L874.987329,190.633571 L1102.79863,76.7200139 L1102.79863,76.7200139 L1141.38925,0 L1139.12313,0 L1101.59892,75.0536365 L873.787621,188.967193 L873.787621,188.967193 L759.41542,417.260892 L531.604124,531.174449 L531.270872,531.174449 L417.231923,759.468148 L189.420627,873.181739 L189.087375,873.181739 L75.0484257,1101.6754 L0,1139.20222 L0,1141.4685 L76.2481341,1103.34178 L76.5813865,1103.20847 Z M275.866283,1303.17375 L275.866283,1303.17375 L389.905231,1075.08002 L617.716527,961.166464 L617.716527,961.166464 L731.755476,733.006075 L960.233277,618.559278 L960.566529,618.559278 L1074.60548,390.398889 L1302.41677,276.485332 L1302.41677,276.485332 L1416.78897,48.0583232 L1512.9656,0 L1508.36672,0 L1415.52262,46.6585662 L1415.52262,46.6585662 L1301.15041,274.685645 L1073.07252,388.599202 L1073.07252,388.599202 L959.033568,616.892901 L731.222272,730.806457 L731.222272,730.806457 L616.850071,959.100156 L389.038775,1073.14702 L389.038775,1073.14702 L274.666574,1301.24076 L46.6553268,1415.15431 L46.6553268,1415.15431 L0,1508.47145 L0,1513.07065 L48.0549866,1416.954 L275.866283,1303.17375 Z M247.339883,1274.64537 L247.339883,1274.64537 L361.712084,1046.48499 L589.52338,932.571429 L589.52338,932.571429 L703.562329,704.41104 L931.373624,590.497483 L931.706877,590.497483 L1046.41233,361.737198 L1274.22363,247.823642 L1274.55688,247.823642 L1388.26258,19.5299427 L1427.3864,0 L1422.78752,0 L1386.99622,17.8635654 L1386.99622,17.8635654 L1273.02392,246.157264 L1044.87937,359.937511 L1044.54612,359.937511 L930.507168,588.36452 L702.695873,702.278077 L702.36262,702.278077 L588.323671,930.571776 L360.512375,1044.48533 L360.179123,1044.48533 L246.140174,1273.11231 L18.3288784,1386.42597 L18.3288784,1386.42597 L0,1422.8863 L0,1427.48551 L19.5285868,1388.35897 L247.339883,1274.64537 Z M58.6524109,0 L54.0535287,0 L18.3288784,17.8635654 L18.3288784,17.8635654 L0,54.0572817 L0,58.6564832 L19.5285868,19.5299427 L58.6524109,0 Z M162.093936,1188.72696 L276.199535,960.633223 L504.010831,846.519701 L504.010831,846.519701 L618.383032,618.425968 L846.46093,504.512411 L846.46093,504.512411 L960.566529,276.418677 L1188.31117,162.505121 L1188.64443,162.505121 L1269.69139,0 L1267.42528,0 L1187.44472,160.638778 L959.30017,274.552335 L959.30017,274.552335 L844.927969,502.846034 L617.116673,616.692935 L617.116673,616.692935 L502.744472,844.986634 L274.933176,958.900191 L274.933176,958.900191 L160.627625,1187.19389 L0,1267.51328 L0,1269.77955 L161.827334,1188.86027 L162.093936,1188.72696 Z M133.634186,1160.19858 L247.673135,932.104843 L475.484431,818.191286 L475.484431,818.191286 L589.856632,589.897587 L817.667928,475.984031 L817.667928,475.984031 L931.773527,247.823642 L1159.71812,133.776775 L1159.71812,133.776775 L1226.36859,0.466585662 L1224.03582,0.466585662 L1157.98521,132.576983 L930.77377,246.023954 L930.77377,246.023954 L816.401569,474.317653 L588.590273,588.23121 L588.590273,588.23121 L474.284722,816.524909 L246.606728,930.37181 L246.606728,930.37181 L132.101225,1158.66551 L0,1224.72071 L0,1227.05364 L133.300934,1160.39854 L133.634186,1160.19858 Z M105.107786,1131.73685 L219.146735,903.576462 L446.958031,789.662906 L446.958031,789.662906 L561.330232,561.369207 L789.141528,447.45565 L789.141528,447.45565 L903.180477,219.295261 L1130.99177,105.381705 L1130.99177,105.381705 L1184.17885,0 L1181.84608,0 L1130.05867,103.582017 L902.24737,217.495574 L902.24737,217.495574 L787.94182,445.789273 L559.863922,559.902795 L559.863922,559.902795 L445.758323,787.996528 L217.947027,901.910085 L217.613774,901.910085 L103.574826,1130.20378 L0,1181.92814 L0,1184.26107 L104.774534,1131.87016 L105.107786,1131.73685 Z M76.5813865,1787.55633 L190.620335,1559.72921 L418.431631,1445.81566 L418.431631,1445.81566 L532.47058,1217.65527 L760.281876,1103.74171 L760.281876,1103.74171 L874.320825,875.581323 L1102.13212,761.667766 L1102.13212,761.667766 L1216.17107,533.507377 L1444.98212,418.92727 L1444.98212,418.92727 L1559.62093,190.633571 L1787.43222,76.7200139 L1787.43222,76.7200139 L1825.75624,0 L1823.42347,0 L1786.23251,75.0536365 L1558.08796,188.967193 L1558.08796,188.967193 L1443.71576,417.260892 L1215.97112,531.174449 L1215.63787,531.174449 L1101.59892,759.334838 L873.787621,873.181739 L873.787621,873.181739 L759.748672,1101.34213 L531.604124,1215.58896 L531.270872,1215.58896 L417.231923,1443.88266 L189.420627,1557.79622 L189.087375,1557.79622 L75.0484257,1786.35654 L0,1823.55008 L0,1825.88301 L76.2481341,1787.75629 L76.5813865,1787.55633 Z M48.0549866,1759.0946 L162.093936,1530.93421 L389.905231,1417.02066 L389.905231,1417.02066 L503.94418,1188.86027 L731.755476,1074.94671 L731.755476,1074.94671 L846.46093,846.519701 L1074.27223,732.606145 L1074.27223,732.606145 L1188.31117,504.445756 L1416.12247,390.532199 L1416.12247,390.532199 L1530.16142,162.438466 L1758.63922,48.2582885 L1758.63922,48.2582885 L1782.96664,0 L1780.70052,0 L1757.43951,46.6585662 L1529.62822,160.438813 L1529.29496,160.438813 L1415.25601,388.732512 L1187.44472,502.646068 L1187.44472,502.646068 L1073.07252,730.939767 L845.261221,844.853324 L845.261221,844.853324 L730.88902,1073.14702 L503.077724,1187.06058 L503.077724,1187.06058 L388.705523,1415.35428 L160.894227,1529.26784 L160.894227,1529.26784 L46.6553268,1757.56153 L0,1780.82416 L0,1783.09044 L47.7883848,1759.22791 L48.0549866,1759.0946 Z M133.634186,1502.40583 L361.445482,1388.49228 L361.445482,1388.49228 L475.551081,1160.33189 L703.562329,1046.48499 L703.562329,1046.48499 L817.601277,818.324596 L1045.41257,704.41104 L1045.41257,704.41104 L1159.45152,476.317306 L1387.92932,361.937164 L1387.92932,361.937164 L1502.30152,133.643465 L1730.11282,19.9965284 L1730.44607,19.9965284 L1740.17704,0 L1737.91092,0 L1728.91311,18.0635306 L1501.10182,131.910432 L1500.76856,131.910432 L1386.72961,359.937511 L1158.91832,474.117688 L1158.91832,474.117688 L1044.87937,702.211422 L817.068074,816.124978 L816.734821,816.124978 L702.695873,1044.21871 L474.551324,1158.5322 L474.551324,1158.5322 L359.912521,1386.8259 L132.367827,1500.73945 L132.367827,1500.73945 L17.9956261,1729.03315 L0,1738.03159 L0,1740.29786 L19.5285868,1730.56622 L133.634186,1502.40583 Z M304.392682,1331.50217 L304.392682,1331.50217 L418.431631,1103.40844 L646.509529,989.294914 L646.509529,989.294914 L760.615128,761.20118 L988.426424,647.287624 L988.426424,647.287624 L1102.53202,419.127235 L1330.34332,305.213678 L1330.34332,305.213678 L1444.38227,77.0532894 L1598.47815,0 L1593.87927,0 L1444.04902,74.9203263 L1444.04902,74.9203263 L1329.67681,303.214025 L1101.86552,417.127582 L1101.86552,417.127582 L987.493318,645.421281 L759.815323,759.334838 L759.815323,759.334838 L645.309821,987.561882 L417.498525,1101.47544 L417.498525,1101.47544 L303.192974,1329.76914 L75.3816781,1443.68269 L75.0484257,1443.68269 L0,1593.98993 L0,1598.58913 L76.5813865,1445.28242 L304.392682,1331.50217 Z M133.634186,1844.7464 L247.673135,1616.58601 L475.484431,1502.73911 L475.484431,1502.73911 L589.856632,1274.3121 L817.667928,1160.39854 L817.667928,1160.39854 L931.773527,932.304808 L1159.71812,818.191286 L1159.71812,818.191286 L1274.22363,589.897587 L1502.03492,475.984031 L1502.03492,475.984031 L1616.07387,247.823642 L1843.88517,133.910085 L1844.21842,133.910085 L1910.86889,0.599895851 L1908.60277,0.599895851 L1842.55216,132.710293 L1615.14076,246.023954 L1614.80751,246.023954 L1500.76856,474.317653 L1273.02392,588.23121 L1273.02392,588.23121 L1158.58507,816.524909 L930.77377,930.37181 L930.77377,930.37181 L816.668171,1158.46554 L588.590273,1272.57907 L588.590273,1272.57907 L474.284722,1500.87277 L246.606728,1614.78632 L246.606728,1614.78632 L132.101225,1843.08002 L0,1909.13522 L0,1911.40149 L133.300934,1844.7464 L133.634186,1844.7464 Z M333.252335,1359.76393 L333.252335,1359.76393 L447.357934,1131.6702 L675.16923,1017.75664 L675.16923,1017.75664 L789.274829,789.662906 L1017.08612,675.749349 L1017.08612,675.749349 L1131.12507,447.655615 L1359.66952,333.275473 L1359.66952,333.275473 L1473.70847,105.115084 L1683.9907,0 L1679.59177,0 L1472.97532,103.448707 L1472.64207,103.448707 L1358.20321,331.742406 L1130.39192,445.655963 L1130.39192,445.655963 L1016.01972,673.883006 L788.208422,787.796563 L788.208422,787.796563 L673.83622,1016.09026 L446.024924,1130.00382 L446.024924,1130.00382 L331.652723,1358.29752 L103.841427,1472.21107 L103.841427,1472.21107 L0,1679.70838 L0,1684.30759 L105.107786,1474.07742 L333.252335,1359.76393 Z M190.620335,1217.25534 L304.725935,989.094949 L532.537231,875.181392 L532.537231,875.181392 L646.842781,646.954348 L874.654077,533.240757 L874.987329,533.240757 L989.026278,305.147023 L1216.83757,191.233466 L1217.17083,191.233466 L1312.48099,0 L1310.21488,0 L1215.63787,189.100503 L987.82657,303.01406 L987.493318,303.01406 L873.454369,531.307759 L645.643073,645.221316 L645.309821,645.221316 L531.270872,873.515015 L303.459576,987.428571 L303.459576,987.428571 L189.087375,1215.72227 L0,1310.30585 L0,1312.57212 L190.353733,1217.38865 L190.620335,1217.25534 Z M105.107786,1816.08471 L219.146735,1587.99097 L446.958031,1474.07742 L446.958031,1474.07742 L561.330232,1245.78372 L789.141528,1131.87016 L789.141528,1131.87016 L903.180477,903.709773 L1130.99177,789.796216 L1130.99177,789.796216 L1245.69723,561.369207 L1473.50852,447.45565 L1473.50852,447.45565 L1587.61412,219.295261 L1815.42542,105.381705 L1815.42542,105.381705 L1868.54584,0 L1866.21307,0 L1814.42566,103.582017 L1586.61436,217.495574 L1586.61436,217.495574 L1472.24216,445.789273 L1244.43087,559.902795 L1244.43087,559.902795 L1130.32527,788.063183 L902.513972,901.97674 L902.513972,901.97674 L788.475023,1130.13713 L559.863922,1244.11734 L559.53067,1244.11734 L445.758323,1472.34438 L217.947027,1586.39125 L217.613774,1586.39125 L103.574826,1814.55164 L0,1866.34265 L0,1868.67558 L104.774534,1816.28467 L105.107786,1816.08471 Z M48.0549866,1074.68009 L162.093936,846.519701 L389.905231,732.606145 L389.905231,732.606145 L504.277433,504.312446 L732.088728,390.398889 L732.088728,390.398889 L846.46093,162.171845 L1074.27223,48.2582885 L1074.27223,48.2582885 L1098.59965,0 L1096.33353,0 L1073.07252,46.6585662 L845.261221,160.438813 L845.261221,160.438813 L730.88902,388.732512 L503.077724,502.646068 L503.077724,502.646068 L388.705523,730.939767 L160.894227,844.853324 L160.894227,844.853324 L46.6553268,1073.14702 L0,1096.40965 L0,1098.67592 L47.7883848,1074.8134 L48.0549866,1074.68009 Z M105.107786,447.32234 L219.146735,219.161951 L446.958031,105.248394 L446.958031,105.248394 L499.878502,0 L497.612386,0 L445.758323,103.582017 L217.947027,217.495574 L217.613774,217.495574 L103.574826,445.789273 L0,497.580281 L0,499.91321 L104.774534,447.522305 L105.107786,447.32234 Z M162.093936,504.312446 L276.199535,276.218712 L504.010831,162.305155 L504.010831,162.305155 L585.391051,0 L583.058284,0 L503.077724,160.638778 L274.933176,274.552335 L274.933176,274.552335 L160.627625,502.846034 L0,583.098768 L0,585.431696 L161.827334,504.512411 L162.093936,504.312446 Z M190.620335,532.840826 L304.725935,304.747093 L532.537231,190.833536 L532.537231,190.833536 L628.114,0 L625.847884,0 L531.270872,189.100503 L303.459576,303.01406 L303.459576,303.01406 L189.087375,531.307759 L0,625.891338 L0,628.157612 L190.353733,533.240757 L190.620335,532.840826 Z M133.634186,475.85072 L247.673135,247.690332 L475.484431,133.776775 L475.484431,133.776775 L542.134898,0.466585662 L539.802131,0.466585662 L473.818169,132.576983 L246.606728,246.023954 L246.606728,246.023954 L132.101225,474.317653 L0,540.372852 L0,542.639125 L133.300934,475.984031 L133.634186,475.85072 Z M219.146735,561.369207 L333.252335,333.275473 L560.99698,219.361916 L560.99698,219.361916 L670.9036,0 L668.637484,0 L559.863922,217.628884 L331.985976,331.542441 L331.652723,331.542441 L217.613774,559.902795 L0,668.683909 L0,670.950182 L218.880133,561.502517 L219.146735,561.369207 Z M144.23161,0 L139.96598,0 L46.6553268,46.6585662 L46.6553268,46.6585662 L0,139.975699 L0,144.5749 L48.0549866,48.0583232 L144.23161,0 Z M315.323359,0 L310.724477,0 L104.108029,103.448707 L104.108029,103.448707 L0,310.746051 L0,315.345253 L105.107786,105.115084 L315.323359,0 Z M229.744159,0 L225.145277,0 L75.3816781,74.9203263 L75.0484257,74.9203263 L0,225.16091 L0,229.760111 L76.5813865,76.4533935 L229.744159,0 Z M247.339883,590.030897 L247.339883,590.030897 L361.712084,361.737198 L589.52338,247.823642 L589.52338,247.823642 L703.895581,19.5299427 L743.019405,0 L738.420523,0 L702.695873,17.8635654 L702.36262,17.8635654 L588.323671,246.157264 L360.512375,359.937511 L359.912521,359.937511 L246.140174,588.36452 L18.3288784,702.278077 L18.3288784,702.278077 L0,738.471793 L0,743.070995 L19.5285868,703.944454 L247.339883,590.030897 Z M76.5813865,418.793959 L190.620335,190.633571 L418.431631,76.7200139 L418.431631,76.7200139 L457.022252,0 L454.756136,0 L417.231923,75.0536365 L189.420627,188.967193 L189.087375,188.967193 L75.0484257,417.260892 L0,454.78771 L0,457.053984 L76.2481341,418.92727 L76.5813865,418.793959 Z M333.252335,675.616039 L333.252335,675.616039 L447.291283,447.32234 L675.102579,333.275473 L675.102579,333.275473 L789.208179,105.115084 L999.757004,0 L995.158121,0 L788.541674,103.448707 L788.541674,103.448707 L673.83622,331.742406 L446.024924,445.655963 L446.024924,445.655963 L331.652723,673.883006 L103.841427,787.796563 L103.841427,787.796563 L0,995.093907 L0,999.826419 L105.107786,789.662906 L333.252335,675.616039 Z M275.866283,618.559278 L275.866283,618.559278 L390.238484,390.265579 L618.04978,276.352022 L618.04978,276.352022 L732.421981,48.0583232 L828.598605,0 L823.999722,0 L731.222272,46.6585662 L731.222272,46.6585662 L616.850071,274.685645 L389.038775,388.599202 L389.038775,388.599202 L274.666574,616.892901 L46.6553268,730.806457 L46.6553268,730.806457 L0,824.12359 L0,828.656136 L48.0549866,732.53949 L275.866283,618.559278 Z M304.392682,647.087658 L304.392682,647.087658 L418.764884,418.793959 L646.509529,304.880403 L646.509529,304.880403 L760.615128,76.7200139 L914.111154,0 L909.512271,0 L759.815323,74.9203263 L759.815323,74.9203263 L645.309821,303.214025 L417.498525,417.127582 L417.498525,417.127582 L303.192974,645.421281 L75.3816781,759.334838 L75.0484257,759.334838 L0,909.575421 L0,914.174622 L76.5813865,760.867905 L304.392682,647.087658 Z M48.0549866,390.265579 L162.093936,162.171845 L389.905231,48.2582885 L389.905231,48.2582885 L414.299302,0 L411.966536,0 L388.705523,46.6585662 L160.894227,160.438813 L160.894227,160.438813 L46.6553268,388.732512 L0,411.99514 L0,414.328068 L47.7883848,390.398889 L48.0549866,390.265579 Z M133.634186,133.643465 L361.445482,19.9965284 L361.445482,19.9965284 L371.509703,0 L369.243587,0 L359.912521,18.0635306 L132.367827,131.910432 L132.367827,131.910432 L17.9956261,359.937511 L0,369.269224 L0,371.535497 L19.5285868,361.737198 L133.634186,133.643465 Z M219.146735,1245.78372 L333.252335,1017.62333 L561.06363,903.709773 L561.06363,903.709773 L675.102579,675.549384 L902.913875,561.635827 L903.247127,561.635827 L1017.55268,333.275473 L1245.36397,219.361916 L1245.69723,219.361916 L1355.27059,0 L1353.00448,0 L1244.16427,217.628884 L1016.35297,331.542441 L1016.01972,331.542441 L901.980769,559.902795 L674.169473,673.816351 L673.83622,673.816351 L559.863922,902.043395 L331.985976,1015.95695 L331.652723,1015.95695 L217.613774,1244.25065 L0,1353.09842 L0,1355.43135 L218.880133,1245.98368 L219.146735,1245.78372 Z"></path>
                    </g>
                </g>
            </g>
        </g>
    </g>
</svg>