<?xml version="1.0" encoding="UTF-8"?>
<svg width="124px" height="42px" viewBox="0 0 124 42" version="1.1" xmlns="http://www.w3.org/2000/svg" xmlns:xlink="http://www.w3.org/1999/xlink">
    <!-- Generator: Sketch 64 (93537) - https://sketch.com -->
    <title>Group</title>
    <desc>Created with Sketch.</desc>
    <g id="External" stroke="none" stroke-width="1" fill="none" fill-rule="evenodd">
        <g id="Tete-One-Pager" transform="translate(-200.000000, -100.000000)" fill="#B2B8E5">
            <g id="Group" transform="translate(200.000000, 100.000000)">
                <path d="M86.6506426,12.9944336 L86.6506426,24.7915527 L86.606209,24.7915527 L86.5682713,25.0192172 C86.3448221,26.220923 85.7835341,27.2225495 84.8844072,28.0240967 C83.9852804,28.8256439 82.9254341,29.2499924 81.7048684,29.2971422 L81.4741289,29.3015625 L73.7204668,29.3015625 L73.7204668,29.7458984 L73.7255767,29.8861975 C73.7562358,30.3014294 73.9248613,30.6656738 74.2314531,30.9789307 C74.5380449,31.2921875 74.9046221,31.4644788 75.3311846,31.4958044 L75.4755938,31.5010254 L86.6506426,31.5010254 L86.6506426,35.9443848 L74.2314531,35.9443848 L73.9972318,35.940731 C72.2903882,35.8871419 70.8206918,35.2440727 69.5881426,34.0115234 C68.3555933,32.7789742 67.7125242,31.3025021 67.6589351,29.5821073 L67.6552813,29.3459961 L67.6552813,19.5928223 L67.6589351,19.3567111 C67.7125242,17.6363162 68.3555933,16.1598442 69.5881426,14.9272949 C70.8206918,13.6947457 72.2903882,13.0516765 73.9972318,12.9980874 L74.2314531,12.9944336 L86.6506426,12.9944336 Z M83.2736895,17.437793 L75.4755938,17.437793 L75.3311846,17.4430139 C74.9046221,17.4743396 74.5380449,17.6466309 74.2314531,17.9598877 C73.9248613,18.2731445 73.7562358,18.6373889 73.7255767,19.0526208 L73.7204668,19.1929199 L73.7204668,24.5693848 L80.7409746,24.5693848 L80.7409746,18.6819336 L83.2736895,17.437793 Z M123.093769,12.9944336 L123.093769,24.7915527 L123.049336,24.7915527 L123.011398,25.0192172 C122.787949,26.220923 122.226661,27.2225495 121.327534,28.0240967 C120.428407,28.8256439 119.368561,29.2499924 118.147995,29.2971422 L117.917255,29.3015625 L110.163593,29.3015625 L110.163593,29.7458984 L110.168703,29.8861975 C110.199362,30.3014294 110.367988,30.6656738 110.67458,30.9789307 C110.981171,31.2921875 111.347749,31.4644788 111.774311,31.4958044 L111.91872,31.5010254 L123.093769,31.5010254 L123.093769,35.9443848 L110.67458,35.9443848 L110.440358,35.940731 C108.733515,35.8871419 107.263818,35.2440727 106.031269,34.0115234 C104.79872,32.7789742 104.155651,31.3025021 104.102062,29.5821073 L104.098408,29.3459961 L104.098408,19.5928223 L104.102062,19.3567111 C104.155651,17.6363162 104.79872,16.1598442 106.031269,14.9272949 C107.263818,13.6947457 108.733515,13.0516765 110.440358,12.9980874 L110.67458,12.9944336 L123.093769,12.9944336 Z M119.716816,17.437793 L111.91872,17.437793 L111.774311,17.4430139 C111.347749,17.4743396 110.981171,17.6466309 110.67458,17.9598877 C110.367988,18.2731445 110.199362,18.6373889 110.168703,19.0526208 L110.163593,19.1929199 L110.163593,24.5693848 L117.184101,24.5693848 L117.184101,18.6819336 L119.716816,17.437793 Z M58.0648,7 L58.0651855,12.8166992 L63.375,12.8166992 L63.375,17.5710937 L58.0651855,17.5710937 L58.0651855,29.7014648 L58.0702954,29.845874 C58.1009546,30.2724365 58.2695801,30.6390137 58.5761719,30.9456055 C58.8827637,31.2521973 59.2493408,31.4208228 59.6759033,31.4514819 L59.8203125,31.4565918 L65.8632813,31.4565918 L65.8632813,35.8999512 L58.5761719,35.8999512 L58.3400817,35.8963184 C56.6199948,35.8430373 55.1472186,35.2036639 53.9217529,33.9781982 C52.6962873,32.7527326 52.0569139,31.2799564 52.0036328,29.5598695 L52,29.3237793 L52,7 L58.0648,7 Z M94.5081426,7 L94.5083121,12.8166992 L99.8181266,12.8166992 L99.8181266,17.5710937 L94.5083121,17.5710937 L94.5083121,29.7014648 L94.513422,29.845874 C94.5440812,30.2724365 94.7127066,30.6390137 95.0192984,30.9456055 C95.3258902,31.2521973 95.6924674,31.4208228 96.1190299,31.4514819 L96.2634391,31.4565918 L102.306408,31.4565918 L102.306408,35.8999512 L95.0192984,35.8999512 L94.7832082,35.8963184 C93.0631214,35.8430373 91.5903451,35.2036639 90.3648795,33.9781982 C89.1394139,32.7527326 88.5000405,31.2799564 88.4467594,29.5598695 L88.4431266,29.3237793 L88.4426426,7 L94.5081426,7 Z" id="Shape"></path>
                <g id="Asset-1" fill-rule="nonzero">
                    <path d="M31.8514763,31.8514763 L38.6492402,31.8514763 C40.2466938,31.8510471 41.5415786,30.5561623 41.5420078,28.9587088 L41.5420078,13.0412912 C41.5415786,11.4438377 40.2466938,10.1489529 38.6492402,10.1485237 L31.8514763,10.1485237 L31.8514763,3.35075978 C31.8510471,1.7533062 30.5561623,0.458421442 28.9587088,0.457992225 L13.0412912,0.457992225 C11.4438377,0.458421442 10.1489529,1.7533062 10.1485237,3.35075978 L10.1485237,10.1485237 L3.35075978,10.1485237 C1.7533062,10.1489529 0.458421442,11.4438377 0.457992225,13.0412912 L0.457992225,28.9587088 C0.458421442,30.5561623 1.7533062,31.8510471 3.35075978,31.8514763 L10.1485237,31.8514763 L10.1485237,38.6492402 C10.1489529,40.2466938 11.4438377,41.5415786 13.0412912,41.5420078 L28.9587088,41.5420078 C30.5561623,41.5415786 31.8510471,40.2466938 31.8514763,38.6492402 L31.8514763,31.8514763 Z M34.5283663,25.5094559 C32.037863,27.9999592 27.9999586,27.9999586 25.5094552,25.5094552 C27.9392146,27.9392146 27.9984776,31.8418126 25.6872431,34.3434177 L25.5094559,34.5283663 C24.313915,35.7251795 22.69165,36.3976496 21,36.3976496 C19.4078589,36.3976496 17.8771798,35.8019667 16.7058789,34.7340955 L16.4905441,34.5283663 C14.0000408,32.037863 14.0000414,27.9999586 16.4905448,25.5094552 C14.0607854,27.9392146 10.1581874,27.9984776 7.65658228,25.6872431 L7.47163366,25.5094559 C6.27482054,24.313915 5.60235041,22.69165 5.60235041,21 C5.60235041,19.4078589 6.1980333,17.8771798 7.2659045,16.7058789 L7.47163366,16.4905441 C9.96213702,14.0000408 14.0000414,14.0000414 16.4905448,16.4905448 C14.0607854,14.0607854 14.0015224,10.1581874 16.3127569,7.65658228 L16.4905441,7.47163366 C17.686085,6.27482054 19.30835,5.60235041 21,5.60235041 C22.5921411,5.60235041 24.1228202,6.1980333 25.2941211,7.2659045 L25.5094559,7.47163366 C27.9999592,9.96213702 27.9999586,14.0000414 25.5094552,16.4905448 C26.7054371,15.2945629 28.3275367,14.6226673 30.0189105,14.6226673 C31.6107917,14.6226673 33.1413094,15.2178407 34.31296,16.2849589 L34.5283663,16.4905441 C35.7251795,17.686085 36.3976496,19.30835 36.3976496,21 C36.3976496,22.5921411 35.8019667,24.1228202 34.7340955,25.2941211 L34.5283663,25.5094559 Z" id="Shape"></path>
                </g>
            </g>
        </g>
    </g>
</svg>